<?xml version="1.0" encoding="UTF-8" standalone="no"?>
<svg width="40px" height="40px" viewBox="0 0 40 40" version="1.1" xmlns="http://www.w3.org/2000/svg" xmlns:xlink="http://www.w3.org/1999/xlink">
    <defs></defs>
    <g stroke="none" stroke-width="1" fill="none" fill-rule="evenodd">
        <g>
            <path d="M20,0 C8.95,0 0,8.95 0,20 C0,31.05 8.95,40 20,40 C31.05,40 40,31.05 40,20 C40,8.95 31.05,0 20,0 L20,0 Z" fill="#FFFFFF"></path>
            <path d="M20,0 C8.95,0 0,8.95 0,20 C0,31.05 8.95,40 20,40 C31.05,40 40,31.05 40,20 C40,8.95 31.05,0 20,0 L20,0 Z M20,6 C23.31,6 26,8.69 26,12 C26,15.32 23.31,18 20,18 C16.69,18 14,15.32 14,12 C14,8.69 16.69,6 20,6 L20,6 Z M20,34.4 C14.99,34.4 10.59,31.84 8,27.96 C8.05,23.99 16.01,21.8 20,21.8 C23.99,21.8 31.94,23.99 32,27.96 C29.41,31.84 25.01,34.4 20,34.4 L20,34.4 Z" fill="#000000"></path>
            <path d="M0,0 L48,0 L48,48 L0,48 L0,0 Z"></path>
        </g>
    </g>
</svg>