<?xml version="1.0" encoding="UTF-8" standalone="no"?>
<svg width="40px" height="40px" viewBox="0 0 40 40" version="1.1" xmlns="http://www.w3.org/2000/svg" xmlns:xlink="http://www.w3.org/1999/xlink">
    <defs></defs>
    <g stroke="none" stroke-width="1" fill="none" fill-rule="evenodd">
        <g fill="#FFFFFF">
            <path d="M20,0 C8.95,0 0,8.95 0,20 C0,31.05 8.95,40 20,40 C31.05,40 40,31.05 40,20 C40,8.95 31.05,0 20,0 L20,0 Z M22,34 L18,34 L18,30 L22,30 L22,34 L22,34 Z M26.13,18.51 L24.34,20.35 C22.9,21.79 22,23 22,26 L18,26 L18,25 C18,22.79 18.9,20.79 20.34,19.34 L22.83,16.82 C23.55,16.1 24,15.1 24,14 C24,11.79 22.21,10 20,10 C17.79,10 16,11.79 16,14 L12,14 C12,9.58 15.58,6 20,6 C24.42,6 28,9.58 28,14 C28,15.76 27.29,17.35 26.13,18.51 L26.13,18.51 Z"></path>
        </g>
    </g>
</svg>