<?xml version="1.0" encoding="UTF-8" standalone="no"?>
<svg width="412px" height="335px" viewBox="0 0 412 335" version="1.1" xmlns="http://www.w3.org/2000/svg" xmlns:xlink="http://www.w3.org/1999/xlink">
    <defs></defs>
    <g stroke="none" stroke-width="1" fill="none" fill-rule="evenodd">
        <path d="M412,39.634 C396.842,46.358 380.551,50.903 363.453,52.944 C380.902,42.483 394.307,25.919 400.617,6.18 C384.284,15.867 366.195,22.901 346.941,26.691 C331.523,10.263 309.555,0 285.243,0 C230.683,0 190.575,50.916 202.906,103.787 C132.656,100.263 70.372,66.61 28.683,15.473 C6.541,53.456 17.198,103.164 54.841,128.323 C40.987,127.885 27.95,124.082 16.556,117.749 C15.639,156.911 43.702,193.53 84.351,201.698 C72.455,204.935 59.425,205.676 46.181,203.145 C56.935,236.725 88.153,261.163 125.141,261.844 C89.604,289.693 44.846,302.132 0,296.847 C37.406,320.829 81.837,334.824 129.571,334.824 C286.503,334.824 375.166,202.273 369.822,83.389 C386.339,71.472 400.668,56.585 412,39.634 L412,39.634 Z" fill="#FFFFFF"></path>
    </g>
</svg>