<?xml version="1.0" encoding="UTF-8" standalone="no"?>
<svg width="412px" height="412px" viewBox="0 0 412 412" version="1.1" xmlns="http://www.w3.org/2000/svg" xmlns:xlink="http://www.w3.org/1999/xlink">
    <defs></defs>
    <g stroke="none" stroke-width="1" fill="none" fill-rule="evenodd">
        <path d="M100.546,50.682 C100.546,78.674 78.038,101.365 50.273,101.365 C22.508,101.365 -2.13162821e-14,78.674 -2.13162821e-14,50.682 C-2.84217094e-14,22.691 22.508,0 50.273,0 C78.039,0 100.546,22.691 100.546,50.682 L100.546,50.682 Z M93.19,137.333 L8.173,137.333 L8.173,412 L93.19,412 L93.19,137.333 L93.19,137.333 Z M229.091,137.333 L147.55,137.333 L147.55,412 L229.091,412 L229.091,267.819 C229.091,229.195 246.87,206.204 280.898,206.204 C312.166,206.204 327.187,228.275 327.187,267.819 L327.187,412 L411.792,412 L411.792,238.085 C411.792,164.514 370.103,128.954 311.858,128.954 C253.613,128.954 229.09,174.323 229.09,174.323 L229.09,137.333 L229.091,137.333 Z" fill="#FFFFFF"></path>
    </g>
</svg>