<?xml version="1.0" encoding="UTF-8" standalone="no"?>
<svg width="18px" height="30px" viewBox="0 0 18 30" version="1.1" xmlns="http://www.w3.org/2000/svg" xmlns:xlink="http://www.w3.org/1999/xlink">
    <defs></defs>
    <g stroke="none" stroke-width="1" fill="none" fill-rule="evenodd">
        <g fill="#FFFFFF">
            <path d="M16,15 C15,15 13,17 9,17 C5,17 3,15 2,15 C0.896,15 0,15.896 0,17 C0,18 0.568,18.481 1,18.734 C2.185,19.427 6,21 6,21 L1.75,26.438 C1.75,26.438 1,27.373 1,28 C1,29.104 1.896,30 3,30 C4.021,30 4.484,29.344 4.484,29.344 C4.484,29.344 8.993,23.993 9,24 C9.007,23.993 13.516,29.344 13.516,29.344 C13.516,29.344 13.979,30 15,30 C16.104,30 17,29.104 17,28 C17,27.373 16.25,26.438 16.25,26.438 L12,21 C12,21 15.815,19.427 17,18.734 C17.432,18.481 18,18 18,17 C18,15.896 17.104,15 16,15 L16,15 Z"></path>
            <path d="M9,0 C5.134,0 2,3.134 2,7 C2,10.866 5.134,14 9,14 C12.865,14 16,10.866 16,7 C16,3.134 12.865,0 9,0 L9,0 Z M9,10.5 C7.067,10.5 5.5,8.934 5.5,7 C5.5,5.067 7.067,3.5 9,3.5 C10.932,3.5 12.5,5.067 12.5,7 C12.5,8.934 10.932,10.5 9,10.5 L9,10.5 Z"></path>
        </g>
    </g>
</svg>