<?xml version="1.0" encoding="UTF-8" standalone="no"?>
<svg width="28px" height="38px" viewBox="0 0 28 38" version="1.1" xmlns="http://www.w3.org/2000/svg" xmlns:xlink="http://www.w3.org/1999/xlink">
    <defs></defs>
    <g stroke="none" stroke-width="1" fill="none" fill-rule="evenodd">
        <g fill="#7D7D7D">
            <path d="M14,24 C17.31,24 19.98,21.31 19.98,18 L20,6 C20,2.68 17.32,0 14,0 C10.69,0 8,2.68 8,6 L8,18 C8,21.31 10.69,24 14,24 L14,24 Z M24.6,18 C24.6,24 19.53,28.2 14,28.2 C8.48,28.2 3.4,24 3.4,18 L0,18 C0,24.83 5.44,30.47 12,31.44 L12,38 L16,38 L16,31.44 C22.56,30.47 28,24.83 28,18 L24.6,18 L24.6,18 Z"></path>
        </g>
    </g>
</svg>