<?xml version="1.0" encoding="UTF-8" standalone="no"?>
<svg width="412px" height="236px" viewBox="0 0 412 236" version="1.1" xmlns="http://www.w3.org/2000/svg" xmlns:xlink="http://www.w3.org/1999/xlink">
    <defs></defs>
    <g stroke="none" stroke-width="1" fill="none" fill-rule="evenodd">
        <path d="M225.94423,235.528275 C236.39223,235.528275 240.68123,228.551275 240.54323,219.821275 C240.01023,186.909275 252.80323,169.202275 275.88823,192.290275 C301.44323,217.843275 306.72623,235.528275 337.73923,235.528275 L392.67623,235.528275 C435.89423,235.528275 397.38123,192.157275 366.93423,163.899275 C337.98623,137.029275 336.62723,136.395275 361.55523,104.052275 C392.50623,63.9122751 432.94823,12.1942751 397.16323,12.1942751 L328.81623,12.1942751 C315.55523,12.1942751 314.59923,19.9422751 309.88823,31.0642751 C292.81823,71.3432751 260.35023,123.535275 248.01523,115.565275 C235.11523,107.228275 241.02223,78.9532751 242.01123,29.9482751 C242.27223,17.0062751 242.20623,8.11527508 222.42523,3.52427508 C168.41623,-9.01072492 121.61523,15.6462751 140.73323,19.2062751 C167.69623,24.2342751 165.11023,77.9012751 158.82123,103.096275 C147.87023,146.966275 106.70723,68.3442751 89.5472301,29.2002751 C85.4192301,19.7812751 84.1572301,12.1942751 69.3822301,12.1942751 L13.5012301,12.1942751 C2.72823014,12.1942751 -2.55376986,17.1282751 1.20723014,27.1332751 C4.96823014,37.1382751 48.2062301,133.860275 99.3262301,189.042275 C146.63923,240.114275 193.40423,235.528275 225.94423,235.528275 L225.94423,235.528275 Z" fill="#FFFFFF"></path>
    </g>
</svg>