<?xml version="1.0" encoding="UTF-8" standalone="no"?>
<svg width="412px" height="405px" viewBox="0 0 412 405" version="1.1" xmlns="http://www.w3.org/2000/svg" xmlns:xlink="http://www.w3.org/1999/xlink">
    <defs></defs>
    <g stroke="none" stroke-width="1" fill="none" fill-rule="evenodd">
        <g transform="translate(0.000000, 53.000000)" fill="#FFFFFF">
            <path d="M412,34.394 L357.379,34.394 L357.379,89.016 L330.068,89.016 L330.068,34.394 L275.446,34.394 L275.446,7.083 L330.068,7.083 L330.068,-47.537 L357.379,-47.537 L357.379,7.084 L412,7.084 L412,34.394 L412,34.394 Z M257.583,260.307 C257.583,301.25 220.199,351.094 126.149,351.094 C57.365,351.094 0,321.426 0,271.525 C0,233.011 24.383,183.014 138.323,183.014 C121.401,169.222 117.248,149.937 127.59,129.055 C60.876,129.055 26.711,89.833 26.711,40.032 C26.711,-8.699 62.953,-53 136.861,-53 L255.259,-53 L228.802,-25.23 L197.723,-25.23 C219.648,-12.668 231.309,13.203 231.309,41.719 C231.309,67.894 216.896,89.094 196.326,104.998 C159.823,133.22 169.168,148.978 207.413,176.87 C245.121,205.121 257.583,226.929 257.583,260.307 L257.583,260.307 Z M183.738,43.5 C178.232,1.595 150.932,-32.784 119.034,-33.743 C87.125,-34.692 65.725,-2.624 71.236,39.292 C76.745,81.197 107.07,110.47 138.985,111.431 C170.882,112.38 189.242,85.41 183.738,43.5 L183.738,43.5 Z M216.631,264.51 C216.631,230.044 185.19,197.193 132.439,197.193 C84.897,196.67 44.607,227.235 44.607,262.664 C44.607,298.818 78.942,328.914 126.486,328.914 C187.267,328.913 216.631,300.664 216.631,264.51 L216.631,264.51 Z"></path>
        </g>
    </g>
</svg>