<?xml version="1.0" encoding="UTF-8" standalone="no"?>
<svg width="40px" height="40px" viewBox="0 0 40 40" version="1.1" xmlns="http://www.w3.org/2000/svg" xmlns:xlink="http://www.w3.org/1999/xlink">
    <defs></defs>
    <g stroke="none" stroke-width="1" fill="none" fill-rule="evenodd">
        <g fill="#7D7D7D">
            <path d="M25.17,12 L20,17.17 L14.83,12 L12,14.83 L17.17,20 L12,25.17 L14.83,28 L20,22.83 L25.17,28 L28,25.17 L22.83,20 L28,14.83 L25.17,12 L25.17,12 Z M20,0 C8.95,0 0,8.95 0,20 C0,31.05 8.95,40 20,40 C31.05,40 40,31.05 40,20 C40,8.95 31.05,0 20,0 L20,0 Z M20,36 C11.18,36 4,28.82 4,20 C4,11.18 11.18,4 20,4 C28.82,4 36,11.18 36,20 C36,28.82 28.82,36 20,36 L20,36 Z"></path>
        </g>
    </g>
</svg>