<?xml version="1.0" encoding="UTF-8" standalone="no"?>
<svg width="42px" height="38px" viewBox="0 0 42 38" version="1.1" xmlns="http://www.w3.org/2000/svg" xmlns:xlink="http://www.w3.org/1999/xlink">
    <defs></defs>
    <g stroke="none" stroke-width="1" fill="none" fill-rule="evenodd">
        <g fill="#7D7D7D">
            <path d="M2.46249548,33.8106818 L5.15249548,34.9206818 L5.15249548,16.8706818 L0.302495476,28.5806818 C-0.537504524,30.6106818 0.432495476,32.9606818 2.46249548,33.8106818 L2.46249548,33.8106818 Z M41.4624955,26.3906818 L31.5424955,2.46068182 C30.9224955,0.960681818 29.4624955,0.0306818182 27.9324955,0.000681818182 C27.4024955,-0.00931818182 26.8624955,0.0906818182 26.3324955,0.300681818 L11.6024955,6.40068182 C10.1024955,7.02068182 9.18249548,8.47068182 9.14249548,10.0006818 C9.13249548,10.5406818 9.22249548,11.0806818 9.44249548,11.6106818 L19.3524955,35.5406818 C19.9824955,37.0606818 21.4524955,37.9806818 23.0124955,38.0006818 C23.5324955,38.0006818 24.0524955,37.9106818 24.5624955,37.7006818 L39.2924955,31.6006818 C41.3224955,30.7606818 42.3024955,28.4206818 41.4624955,26.3906818 L41.4624955,26.3906818 Z M13.1524955,12.0006818 C12.0524955,12.0006818 11.1524955,11.1006818 11.1524955,10.0006818 C11.1524955,8.90068182 12.0524955,8.00068182 13.1524955,8.00068182 C14.2524955,8.00068182 15.1524955,8.90068182 15.1524955,10.0006818 C15.1524955,11.1006818 14.2524955,12.0006818 13.1524955,12.0006818 L13.1524955,12.0006818 Z M9.15249548,34.0006818 C9.15249548,36.2006818 10.9524955,38.0006818 13.1524955,38.0006818 L16.0624955,38.0006818 L9.15249548,21.3206818 L9.15249548,34.0006818 L9.15249548,34.0006818 Z"></path>
        </g>
    </g>
</svg>