<?xml version="1.0" encoding="UTF-8" standalone="no"?>
<svg width="44px" height="36px" viewBox="0 0 44 36" version="1.1" xmlns="http://www.w3.org/2000/svg" xmlns:xlink="http://www.w3.org/1999/xlink">
    <defs></defs>
    <g stroke="none" stroke-width="1" fill="none" fill-rule="evenodd">
        <g fill="#7D7D7D">
            <path d="M40,3.55271368e-15 L4,3.55271368e-15 C1.79,3.55271368e-15 0,1.79 0,4 L0,11.98 L4,11.98 L4,3.96 L40,3.96 L40,32.02 L4,32.02 L4,23.98 L0,23.98 L0,32 C0,34.21 1.79,35.96 4,35.96 L40,35.96 C42.21,35.96 44,34.2 44,32 L44,4 C44,1.79 42.21,0 40,0 L40,3.55271368e-15 Z M20,25.98 L28,17.98 L20,9.98 L20,15.98 L0,15.98 L0,19.98 L20,19.98 L20,25.98 L20,25.98 Z"></path>
        </g>
    </g>
</svg>