<?xml version="1.0" encoding="UTF-8" standalone="no"?>
<svg width="36px" height="36px" viewBox="0 0 36 36" version="1.1" xmlns="http://www.w3.org/2000/svg" xmlns:xlink="http://www.w3.org/1999/xlink">
    <defs></defs>
    <g stroke="none" stroke-width="1" fill="none" fill-rule="evenodd">
        <g fill="#7D7D7D">
            <path d="M18,14 C15.79,14 14,15.79 14,18 C14,20.21 15.79,22 18,22 C20.21,22 22,20.21 22,18 C22,15.79 20.21,14 18,14 L18,14 Z M32,0 L4,0 C1.79,0 0,1.79 0,4 L0,32 C0,34.21 1.79,36 4,36 L32,36 C34.21,36 36,34.21 36,32 L36,4 C36,1.79 34.21,0 32,0 L32,0 Z M28.5,18 C28.5,18.46 28.46,18.92 28.4,19.37 L31.36,21.69 C31.62,21.9 31.7,22.28 31.52,22.58 L28.72,27.43 C28.55,27.73 28.18,27.85 27.86,27.73 L24.37,26.32 C23.65,26.88 22.86,27.34 22,27.7 L21.48,31.41 C21.44,31.74 21.15,32 20.8,32 L15.2,32 C14.85,32 14.56,31.74 14.51,31.41 L13.99,27.7 C13.14,27.35 12.35,26.88 11.62,26.32 L8.14,27.72 C7.82,27.84 7.46,27.72 7.28,27.42 L4.48,22.57 C4.3,22.27 4.38,21.89 4.64,21.68 L7.6,19.37 C7.54,18.92 7.5,18.47 7.5,18 C7.5,17.54 7.54,17.08 7.6,16.63 L4.64,14.32 C4.38,14.11 4.3,13.73 4.48,13.43 L7.28,8.58 C7.46,8.28 7.82,8.16 8.14,8.28 L11.62,9.68 C12.34,9.13 13.13,8.66 13.99,8.3 L14.51,4.59 C14.56,4.26 14.85,4 15.2,4 L20.8,4 C21.15,4 21.44,4.26 21.49,4.59 L22.01,8.3 C22.86,8.65 23.65,9.12 24.38,9.68 L27.86,8.28 C28.18,8.16 28.54,8.28 28.72,8.58 L31.52,13.43 C31.7,13.73 31.62,14.11 31.36,14.32 L28.4,16.64 C28.46,17.08 28.5,17.54 28.5,18 L28.5,18 Z"></path>
        </g>
    </g>
</svg>