<?xml version="1.0" encoding="UTF-8" standalone="no"?>
<svg width="40px" height="40px" viewBox="0 0 40 40" version="1.1" xmlns="http://www.w3.org/2000/svg" xmlns:xlink="http://www.w3.org/1999/xlink">
    <defs></defs>
    <g stroke="none" stroke-width="1" fill="none" fill-rule="evenodd">
        <g fill="#7D7D7D">
            <path d="M36,0 L4,0 C1.79,0 0.02,1.79 0.02,4 L0,40 L8,32 L36,32 C38.21,32 40,30.21 40,28 L40,4 C40,1.79 38.21,0 36,0 L36,0 Z M8,14 L32,14 L32,18 L8,18 L8,14 L8,14 Z M32,24 L8,24 L8,20 L32,20 L32,24 L32,24 Z M32,12 L8,12 L8,8 L32,8 L32,12 L32,12 Z" transform="translate(20.000000, 20.000000) scale(-1, 1) translate(-20.000000, -20.000000) "></path>
        </g>
    </g>
</svg>