<?xml version="1.0" encoding="UTF-8" standalone="no"?>
<svg width="36px" height="40px" viewBox="0 0 36 40" version="1.1" xmlns="http://www.w3.org/2000/svg" xmlns:xlink="http://www.w3.org/1999/xlink">
    <defs></defs>
    <g stroke="none" stroke-width="1" fill="none" fill-rule="evenodd">
        <g fill="#7D7D7D">
            <path d="M32,4 L23.63,4 C22.81,1.68 20.61,0 18,0 C15.39,0 13.19,1.68 12.37,4 L4,4 C1.79,4 0,5.79 0,8 L0,36 C0,38.21 1.79,40 4,40 L32,40 C34.21,40 36,38.21 36,36 L36,8 C36,5.79 34.21,4 32,4 L32,4 Z M18,4 C19.1,4 20,4.89 20,6 C20,7.11 19.1,8 18,8 C16.9,8 16,7.11 16,6 C16,4.89 16.9,4 18,4 L18,4 Z M22,32 L8,32 L8,28 L22,28 L22,32 L22,32 Z M28,24 L8,24 L8,20 L28,20 L28,24 L28,24 Z M28,16 L8,16 L8,12 L28,12 L28,16 L28,16 Z"></path>
        </g>
    </g>
</svg>