<?xml version="1.0" encoding="UTF-8" standalone="no"?>
<svg width="20px" height="20px" viewBox="0 0 20 20" version="1.1" xmlns="http://www.w3.org/2000/svg" xmlns:xlink="http://www.w3.org/1999/xlink">
    <defs></defs>
    <g stroke="none" stroke-width="1" fill="none" fill-rule="evenodd">
        <g>
            <path d="M0,0 L24,0 L24,24 L0,24 L0,0 Z"></path>
            <circle fill="#7D7D7D" cx="10" cy="11.49" r="1.5"></circle>
            <path d="M10,0 C4.48,0 0,4.48 0,10 C0,15.52 4.48,20 10,20 C15.52,20 20,15.52 20,10 C20,4.48 15.52,0 10,0 L10,0 Z M10,2.5 C11.24,2.5 12.25,3.51 12.25,4.75 C12.25,5.99 11.24,7 10,7 C8.76,7 7.75,5.99 7.75,4.75 C7.75,3.51 8.76,2.5 10,2.5 L10,2.5 Z M15,13.06 L15,15.56 C14.55,15.97 14.04,16.33 13.5,16.61 L13.5,15.93 C13.5,15.59 13.33,15.28 13.04,15.01 C12.39,14.39 11.15,13.99 10,13.99 C9.04,13.99 8.04,14.27 7.35,14.72 L7.18,14.84 L6.97,15.01 C7.75,15.48 8.6,15.73 9.51,15.83 L10.84,15.98 C11.21,16.02 11.5,16.34 11.5,16.73 C11.5,17.02 11.34,17.26 11.1,17.39 C10.82,17.54 10.46,17.48 10.15,17.48 C9.8,17.48 9.46,17.47 9.12,17.43 C8.62,17.37 8.13,17.26 7.66,17.1 C7.17,16.94 6.69,16.72 6.24,16.46 C6.02,16.33 5.8,16.19 5.59,16.03 L5.28,15.79 C5.24,15.77 5,15.61 5,15.56 L5,11.28 C5,9.7 7.63,8.5 10,8.5 C12.37,8.5 15,9.7 15,11.28 L15,13.06 L15,13.06 Z" fill="#7D7D7D"></path>
        </g>
    </g>
</svg>