<?xml version="1.0" encoding="UTF-8" standalone="no"?>
<svg
   xmlns:dc="http://purl.org/dc/elements/1.1/"
   xmlns:cc="http://creativecommons.org/ns#"
   xmlns:rdf="http://www.w3.org/1999/02/22-rdf-syntax-ns#"
   xmlns:svg="http://www.w3.org/2000/svg"
   xmlns="http://www.w3.org/2000/svg"
   xmlns:sodipodi="http://sodipodi.sourceforge.net/DTD/sodipodi-0.dtd"
   xmlns:inkscape="http://www.inkscape.org/namespaces/inkscape"
   viewBox="0 0 512 512"
   id="svg2"
   version="1.1"
   inkscape:version="0.91 r"
   sodipodi:docname="news-icon-tasks.svg">
  <metadata
     id="metadata10">
    <rdf:RDF>
      <cc:Work
         rdf:about="">
        <dc:format>image/svg+xml</dc:format>
        <dc:type
           rdf:resource="http://purl.org/dc/dcmitype/StillImage" />
        <dc:title />
      </cc:Work>
    </rdf:RDF>
  </metadata>
  <defs
     id="defs8" />
  <sodipodi:namedview
     pagecolor="#ffffff"
     bordercolor="#666666"
     borderopacity="1"
     objecttolerance="10"
     gridtolerance="10"
     guidetolerance="10"
     inkscape:pageopacity="0"
     inkscape:pageshadow="2"
     inkscape:window-width="1600"
     inkscape:window-height="834"
     id="namedview6"
     showgrid="false"
     inkscape:zoom="0.921875"
     inkscape:cx="279.66772"
     inkscape:cy="310.62247"
     inkscape:window-x="0"
     inkscape:window-y="32"
     inkscape:window-maximized="1"
     inkscape:current-layer="svg2" />
  <path
     d="M256 90c44.3 0 86 17.3 117.4 48.6S422 211.7 422 256c0 44.3-17.3 86-48.6 117.4C342 404.7 300.3 422 256 422s-86-17.3-117.4-48.6C107.3 342 90 300.3 90 256c0-44.3 17.3-86 48.6-117.4S211.7 90 256 90m0-40C142.2 50 50 142.2 50 256s92.2 206 206 206 206-92.2 206-206S369.8 50 256 50zm0 121.2c46.8 0 84.8 38.1 84.8 84.8s-38.1 84.8-84.8 84.8-84.8-38.1-84.8-84.8c0-46.8 38-84.8 84.8-84.8m0-40c-68.9 0-124.8 55.9-124.8 124.8S187.1 380.8 256 380.8 380.8 324.9 380.8 256 324.9 131.2 256 131.2zm0 79.3c-24.3 0-44 19.7-44 44s19.7 44 44 44 44-19.7 44-44-19.7-44-44-44z"
     id="path4"
     style="fill:#7d7d7d;fill-opacity:1;opacity:0.98"
     fill="#FFF"
     inkscape:export-filename="/home/panda/Робочий стіл/Civil Society app/images/news-icon-tasks.png"
     inkscape:export-xdpi="300"
     inkscape:export-ydpi="300" />
</svg>
