<svg xmlns="http://www.w3.org/2000/svg" viewBox="0 0 512 512">
  <path fill="#FFF" d="M374.9 148.2c-8.3 24.2-8.3 19.5 0 43.9.9 2.5 1.3 5.1 1.3 7.6 0 7.7-3.8 15.2-10.6 19.8-21.6 14.9-18.7 11.2-26.8 35.5-3.4 10.1-13.2 17-24.3 17h-.1c-26.6-.1-22-1.5-43.4 13.5-4.5 3.2-9.8 4.7-15 4.7s-10.6-1.6-15-4.7c-21.4-15.1-16.8-13.6-43.4-13.5h-.1c-11.1 0-20.9-6.9-24.3-17-8.1-24.3-5.3-20.6-26.8-35.5-6.8-4.7-10.6-12.1-10.6-19.9 0-2.5.4-5.1 1.3-7.6 8.3-24.2 8.3-19.5 0-43.9-.9-2.5-1.3-5.1-1.3-7.6 0-7.7 3.8-15.2 10.6-19.9 21.5-14.9 18.7-11.1 26.8-35.5 3.4-10.1 13.2-17 24.3-17h.1c26.5.1 21.8 1.6 43.4-13.6 4.5-3.1 9.8-4.7 15-4.7s10.6 1.6 15 4.7c21.4 15.1 16.8 13.6 43.4 13.6h.1c11.1 0 20.9 6.9 24.3 17 8.1 24.3 5.3 20.5 26.8 35.5 6.8 4.7 10.6 12.1 10.6 19.8 0 2.7-.4 5.3-1.3 7.8zm-50.2 22c0-37.9-30.7-68.7-68.7-68.7s-68.7 30.7-68.7 68.7c0 37.9 30.7 68.7 68.7 68.7s68.7-30.8 68.7-68.7zM256 324.7c-19.8 0-29.3-7.2-43.6-17.2h-25.1V462l69.4-51.5 67.9 51.5V307.5h-25.8c-10.5 10.1-26.1 17.2-42.8 17.2z"/>
</svg>
