<svg xmlns="http://www.w3.org/2000/svg" viewBox="0 0 512 512">
  <path fill="#FFF" d="M256 90c44.3 0 86 17.3 117.4 48.6S422 211.7 422 256c0 44.3-17.3 86-48.6 117.4C342 404.7 300.3 422 256 422s-86-17.3-117.4-48.6C107.3 342 90 300.3 90 256c0-44.3 17.3-86 48.6-117.4S211.7 90 256 90m0-40C142.2 50 50 142.2 50 256s92.2 206 206 206 206-92.2 206-206S369.8 50 256 50zm0 121.2c46.8 0 84.8 38.1 84.8 84.8s-38.1 84.8-84.8 84.8-84.8-38.1-84.8-84.8c0-46.8 38-84.8 84.8-84.8m0-40c-68.9 0-124.8 55.9-124.8 124.8S187.1 380.8 256 380.8 380.8 324.9 380.8 256 324.9 131.2 256 131.2zm0 79.3c-24.3 0-44 19.7-44 44s19.7 44 44 44 44-19.7 44-44-19.7-44-44-44z"/>
</svg>
