<?xml version="1.0" encoding="UTF-8" standalone="no"?>
<!-- Created with Inkscape (http://www.inkscape.org/) -->

<svg
   xmlns:dc="http://purl.org/dc/elements/1.1/"
   xmlns:cc="http://creativecommons.org/ns#"
   xmlns:rdf="http://www.w3.org/1999/02/22-rdf-syntax-ns#"
   xmlns:svg="http://www.w3.org/2000/svg"
   xmlns="http://www.w3.org/2000/svg"
   xmlns:sodipodi="http://sodipodi.sourceforge.net/DTD/sodipodi-0.dtd"
   xmlns:inkscape="http://www.inkscape.org/namespaces/inkscape"
   width="111.74329mm"
   height="106.24454mm"
   viewBox="0 0 395.94057 376.4568"
   id="svg2"
   version="1.1"
   inkscape:version="0.91 r13725"
   sodipodi:docname="hui2.svg">
  <defs
     id="defs4" />
  <sodipodi:namedview
     id="base"
     pagecolor="#ffffff"
     bordercolor="#666666"
     borderopacity="1.0"
     inkscape:pageopacity="0.0"
     inkscape:pageshadow="2"
     inkscape:zoom="1.4"
     inkscape:cx="252.72296"
     inkscape:cy="157.8774"
     inkscape:document-units="px"
     inkscape:current-layer="layer1"
     showgrid="false"
     inkscape:window-width="1600"
     inkscape:window-height="837"
     inkscape:window-x="-8"
     inkscape:window-y="-8"
     inkscape:window-maximized="1"
     inkscape:snap-bbox="true"
     inkscape:snap-global="true"
     inkscape:bbox-paths="true"
     inkscape:bbox-nodes="true"
     inkscape:snap-bbox-edge-midpoints="true"
     inkscape:snap-bbox-midpoints="true"
     fit-margin-top="0"
     fit-margin-left="0"
     fit-margin-right="0"
     fit-margin-bottom="0" />
  <metadata
     id="metadata7">
    <rdf:RDF>
      <cc:Work
         rdf:about="">
        <dc:format>image/svg+xml</dc:format>
        <dc:type
           rdf:resource="http://purl.org/dc/dcmitype/StillImage" />
        <dc:title></dc:title>
      </cc:Work>
    </rdf:RDF>
  </metadata>
  <g
     inkscape:label="Layer 1"
     inkscape:groupmode="layer"
     id="layer1"
     transform="translate(-2.9699526,-672.13897)">
    <path
       style="fill:#ffcc00"
       d="m 77.842996,1047.9255 c 0,-1.7282 41.198404,-130.74741 44.841774,-140.42897 0.66519,-1.76763 -25.998504,-22.98192 -59.252674,-47.14286 l -60.4621434,-43.92899 75.2104134,-1.42857 75.210394,-1.42857 22.79836,-70.71429 c 12.5391,-38.89285 23.59493,-70.71428 24.56852,-70.71428 0.9736,0 12.08057,31.82143 24.68216,70.71428 l 22.912,70.71429 75.27935,1.42857 75.27937,1.42857 -60.67334,44.00433 c -39.49071,28.64129 -60.15722,45.34928 -59.19505,47.85666 3.54132,9.22852 44.51514,137.22533 44.51514,139.05943 0,1.1179 -13.82143,-8.0522 -30.71429,-20.3779 -16.89286,-12.3258 -44.48846,-32.39032 -61.32356,-44.58786 L 200.91015,960.20203 142.948,1002.2925 c -31.87919,23.1497 -59.569284,43.3501 -61.533574,44.8897 -1.96429,1.5396 -3.57143,1.8741 -3.57143,0.7433 z"
       id="path3374"
       inkscape:connector-curvature="0" />
  </g>
</svg>
